<svg width="18" height="32" fill="none" xmlns="http://www.w3.org/2000/svg"><path d="M15.397 0H2.603C1.165 0 0 1.244 0 2.78v26.44C0 30.756 1.165 32 2.603 32h12.794C16.835 32 18 30.756 18 29.22V2.78C18 1.244 16.835 0 15.397 0zM7.172 3.146h3.656c.247 0 .448.214.448.478s-.201.478-.448.478H7.172c-.247 0-.448-.214-.448-.478s.201-.478.448-.478zm1.83 27.685c-1.051 0-1.9-.91-1.9-2.028 0-1.122.851-2.03 1.9-2.03 1.047 0 1.899.91 1.899 2.03 0 1.119-.852 2.028-1.9 2.028zm6.763-6.088c0 .483-.366.874-.818.874H3.056c-.453 0-.819-.391-.819-.874v-17.5c0-.483.366-.874.819-.874h11.89c.453 0 .82.391.82.874v17.5z" fill="url(#paint0_linear_81_853)"/><defs><linearGradient id="paint0_linear_81_853" x1="9" y1="0" x2="9" y2="32" gradientUnits="userSpaceOnUse"><stop stop-color="#DEBF82"/><stop offset="1" stop-color="#B7975A"/></linearGradient></defs></svg>