<svg width="23" height="34" fill="none" xmlns="http://www.w3.org/2000/svg"><path fill-rule="evenodd" clip-rule="evenodd" d="M11.245.002c5.958.114 10.757 5.22 10.757 11.505a11.75 11.75 0 01-.616 3.776 12.06 12.06 0 01-.81 1.833l-8.589 16.3a1.056 1.056 0 01-1.889 0L1.515 17.122c-.313-.599-.604-1.21-.821-1.857a11.966 11.966 0 01-.582-4.525C.5 4.688 5.464-.106 11.245.002zm3.487 11.505c0 2.138-1.65 3.872-3.686 3.872s-3.687-1.734-3.687-3.872 1.65-3.87 3.687-3.87c2.036 0 3.686 1.732 3.686 3.87z" fill="url(#paint0_linear_304_8131)"/><defs><linearGradient id="paint0_linear_304_8131" x1="11.045" y1="0" x2="11.045" y2="34" gradientUnits="userSpaceOnUse"><stop stop-color="#DEBF82"/><stop offset="1" stop-color="#B7975A"/></linearGradient></defs></svg>