<svg width="19" height="20" fill="none" xmlns="http://www.w3.org/2000/svg"><path d="M16.552 2.844c-.475-.435-2.395-1.82-6.673-1.84 0 0-5.044-.301-7.502 1.94C1.007 4.307.526 6.297.477 8.767c-.052 2.468-.118 7.095 4.37 8.35h.004l-.003 1.914s-.03.775.484.933c.62.192.986-.397 1.578-1.031.326-.349.775-.86 1.114-1.253 3.068.257 5.428-.329 5.697-.416.619-.2 4.125-.646 4.695-5.273.587-4.77-.286-7.787-1.864-9.146zm.52 8.802c-.482 3.863-3.325 4.106-3.849 4.273-.223.071-2.296.584-4.901.415 0 0-1.943 2.33-2.549 2.936-.095.094-.206.133-.28.114-.105-.024-.133-.148-.131-.328l.016-3.18s-.003 0 0 0c-3.795-1.048-3.575-4.986-3.531-7.048.044-2.062.432-3.75 1.59-4.887 2.08-1.873 6.365-1.593 6.365-1.593 3.618.016 5.352 1.099 5.754 1.461 1.334 1.134 2.014 3.853 1.516 7.837z" fill="#fff"/><path d="M11.64 8.897a.24.24 0 01-.242-.23c-.04-.816-.427-1.217-1.217-1.258a.242.242 0 01-.229-.252.242.242 0 01.254-.228c1.042.054 1.622.647 1.674 1.714a.242.242 0 01-.229.252c-.003.002-.007.002-.012.002z" fill="#fff"/><path d="M12.882 9.31h-.006a.242.242 0 01-.237-.245c.018-.821-.219-1.487-.722-2.034-.504-.546-1.193-.845-2.108-.91a.24.24 0 01-.223-.257.241.241 0 01.258-.222c1.03.075 1.847.434 2.429 1.065.584.634.87 1.43.85 2.37a.24.24 0 01-.241.233z" fill="#fff"/><path d="M14.152 9.805a.241.241 0 01-.243-.238c-.011-1.451-.45-2.606-1.302-3.432-.854-.828-1.934-1.252-3.208-1.26a.242.242 0 01-.24-.243.243.243 0 01.241-.24h.002c1.404.01 2.597.481 3.543 1.398.948.92 1.436 2.188 1.447 3.773a.24.24 0 01-.239.242h-.001zm-3.91 2.072s.34.029.523-.196l.358-.447c.172-.222.588-.363.994-.138.305.173.601.361.887.563.27.197.823.656.825.656.263.22.324.546.144.888l-.001.007a3.697 3.697 0 01-.743.91l-.007.006c-.256.213-.508.334-.755.363a1.001 1.001 0 01-.43-.042l-.01-.012c-.38-.107-1.015-.375-2.073-.953a12.339 12.339 0 01-1.743-1.145 9.063 9.063 0 01-.784-.69L7.4 11.62l-.027-.026-.026-.026-.026-.026a9.02 9.02 0 01-.695-.78 12.36 12.36 0 01-1.152-1.73c-.583-1.053-.852-1.684-.959-2.062l-.011-.01a1.027 1.027 0 01-.043-.427c.031-.245.154-.495.365-.75l.006-.008c.264-.293.572-.542.915-.738l.008-.002c.344-.178.671-.117.893.143.001.001.463.551.66.82.203.284.392.578.566.882.226.404.085.818-.139.988l-.45.355c-.225.182-.196.52-.196.52s.667 2.503 3.152 3.134z" fill="#fff"/></svg>