<svg width="20" height="20" fill="none" xmlns="http://www.w3.org/2000/svg"><path fill-rule="evenodd" clip-rule="evenodd" d="M16.732 3.718A9.323 9.323 0 0010.114.991C4.957.991.761 5.162.76 10.291c0 1.639.43 3.238 1.25 4.65L.68 19.758l4.96-1.293a9.382 9.382 0 004.471 1.132h.005c5.155 0 9.353-4.172 9.355-9.3a9.225 9.225 0 00-2.74-6.58zm-6.618 14.309h-.003a7.792 7.792 0 01-3.958-1.078l-.284-.167-2.943.766.784-2.852-.185-.293a7.677 7.677 0 01-1.188-4.114c.001-4.262 3.49-7.728 7.779-7.728 2.077 0 4.029.805 5.497 2.266a7.663 7.663 0 012.276 5.468c0 4.264-3.49 7.732-7.775 7.732zm4.265-5.79c-.234-.116-1.383-.679-1.598-.756-.213-.077-.37-.116-.525.117-.156.232-.604.756-.74.911-.137.156-.274.175-.508.059-.233-.116-.986-.362-1.88-1.153-.695-.616-1.164-1.376-1.3-1.61-.137-.233-.015-.358.103-.474.105-.104.234-.272.35-.408.118-.136.157-.232.234-.388.078-.155.04-.29-.02-.407-.057-.116-.525-1.26-.72-1.725-.19-.453-.383-.392-.526-.398a10.486 10.486 0 00-.448-.008.865.865 0 00-.624.291c-.214.233-.818.796-.818 1.94s.838 2.248.955 2.404c.117.155 1.649 2.502 3.993 3.508.557.24.993.382 1.333.49.56.176 1.07.152 1.473.092.449-.067 1.383-.562 1.577-1.105.194-.544.194-1.008.136-1.105-.057-.1-.213-.158-.447-.274z" fill="#fff"/></svg>