<svg width="24" height="16" fill="none" xmlns="http://www.w3.org/2000/svg"><path d="M23.788 1.329L16.51 8l7.278 6.671c.132-.253.212-.534.212-.833V2.162c0-.3-.08-.58-.212-.833zM21.89.216H2.109a2.23 2.23 0 00-.904.195l9.303 8.54c.823.758 2.16.758 2.983 0L22.794.41a2.23 2.23 0 00-.904-.195zM.211 1.329A1.802 1.802 0 000 2.162v11.676c0 .3.08.58.211.834L7.49 8 .211 1.33z" fill="#fff"/><path d="M15.515 8.917l-1.03.95c-1.37 1.265-3.6 1.265-4.971 0l-1.03-.95-7.279 6.672c.275.121.58.195.904.195h19.78c.326 0 .63-.074.905-.195l-7.28-6.672z" fill="#fff"/></svg>