<svg width="137" height="31" fill="none" xmlns="http://www.w3.org/2000/svg"><path d="M73.818 10.427c-4.66 0-4.816 4.223-4.816 4.69 0 1.445.796 2.935 1.944 3.602.685.378 1.281.6 1.988.867.199.066.442.155.663.244a3.3 3.3 0 00.508.178c1.126.4 2.297.8 2.275 2.179 0 .689-.398 1.823-1.79 1.823h-5.588v2.934h5.567c1.656 0 2.915-.555 3.754-1.667.906-1.178.995-2.557.995-3.09 0-1.312-.663-3.068-2.121-3.735a18.34 18.34 0 00-1.745-.667c-.22-.067-.464-.156-.729-.244l-.154-.067c-.928-.334-2.651-.956-2.629-2.357.022-1.2.685-1.756 2.187-1.756h5.19v-2.912h-5.102c-.11-.022-.265-.022-.397-.022zm-20.828 0h-3.027l-2.209 8.292-1.148 4.401c0 .023 0 .023-.022.023-.177.467-.619.8-1.149.8s-.95-.333-1.149-.8c0-.023 0-.045-.022-.067l-1.17-4.38-2.21-8.292H37.86l3.556 13.406-.022-.134c.508 1.801 2.01 3.135 3.843 3.18.044.022.089.022.155.022.044 0 .088-.023.154-.023 1.834-.066 3.358-1.378 3.844-3.179l-.022.134 3.622-13.383zm10.58 3.223c-.509-1.8-2.01-3.112-3.844-3.201-.044 0-.089-.022-.155-.022-.044 0-.088.022-.154.022-1.834.066-3.336 1.378-3.844 3.179l.022-.111-3.578 13.45h3.026l1.149-4.358h6.759l1.148 4.357h3.026l-3.578-13.45.022.134zm-6.605 6.047l.265-1.067 1.17-4.424v-.022c.2-.467.641-.8 1.15-.8.507 0 .949.333 1.126.8.022.022.022.044.022.066l1.17 4.38.287 1.067h-5.19zm32.292-9.227H82.08v16.496h2.915V21.32c1.17-.356 4.948-1.623 5.147-1.69.706-.267 1.303-.467 1.988-.867 1.148-.667 1.943-2.156 1.943-3.624.022-.466-.132-4.668-4.815-4.668zm-.795 6.804s-2.496.711-3.468.978v-4.846h3.932c1.48 0 2.165.533 2.187 1.733.022 1.423-1.635 1.735-2.651 2.135zm20.321-6.804h-2.916v10.25c-.022 1.801-1.391 3.268-3.092 3.268-1.635 0-2.96-1.356-3.07-3.067V10.47h-2.916v10.071c.022 2.312 1.17 4.335 2.916 5.446a5.656 5.656 0 006.162 0c1.701-1.089 2.827-3.023 2.916-5.268V10.47zm12.325 16.496h3.843l-6.008-7.136c.332-.11.552-.2.597-.2.706-.267 1.325-.467 1.988-.867 1.148-.667 1.943-2.156 1.943-3.624 0-.489-.154-4.69-4.815-4.69h-7.178v16.495h2.915V21.32c.354-.111.906-.29 1.546-.512l5.169 6.159zm-6.737-13.56h3.932c1.48 0 2.164.533 2.186 1.733.022 1.423-1.634 1.712-2.65 2.135 0 0-2.474.711-3.468.978v-4.846zm12.899-8.56h-1.745v1.09h1.745c.354.022.53.178.597.533-.464.134-1.789.6-1.856.623a4.238 4.238 0 00-.729.311c-.419.245-.706.8-.706 1.334 0 .156.066 1.712 1.767 1.712h2.65V6.603c-.022-1.69-1.546-1.757-1.723-1.757zm.619 4.513h-1.436c-.552 0-.795-.2-.795-.622 0-.534.596-.623.972-.778 0 0 .905-.267 1.259-.356V9.36zm2.407-2.801v3.868h1.083V6.58c0-.444.243-.6.795-.6h.486V4.87h-.619c-1.678-.023-1.745 1.511-1.745 1.69zm4.507-.6h1.281V4.847h-1.281v-1.29h-1.083v5.18c0 .156.066 1.712 1.745 1.712h.619V9.337h-.508c-.531 0-.773-.178-.796-.6l.023-2.779zM26.086 0H4.24C1.9 0 0 1.912 0 4.268v21.987c0 2.357 1.9 4.268 4.24 4.268h8.902c-1.192-.244-3.114-.689-3.688-.956-1.767-.778-2.342-2.223-3.247-3.668-.773-1.245-1.502-4.913-1.326-6.491.155-1.468 1.657-5.425 2.916-6.336.773-.578 3.689-1 6.008-1.245.994-.311 1.126-1.045 1.126-1.378l-.243-3.38c-.022-.222.067-.333.243-.355.221-.022.288.222.354.378 0 0 .265.711.486 1.356 0 .022.044.089.066.111a.47.47 0 00.331.178c.155.022.31-.045.376-.156.022-.044.066-.089.088-.155l.265-.578a.608.608 0 01.619-.356h.022c.022 0 .022.022.022.022.265.067.442.267.442.534l.066.622c0 .067.022.111.022.156a.5.5 0 00.31.289c.021 0 .22.044.375-.067.022 0 .088-.089.088-.089.464-.511.95-1.111.95-1.111.11-.112.265-.334.464-.245.176.178.198.29.11.511l-1.413 3.09c-.111.312-.244 1.023.574 1.668 2.076 1.045 4.682 2.467 5.213 3.29.839 1.29.86 5.536.508 6.958-.376 1.534-2.364 4.736-3.512 5.625-.84.622-1.569 1.311-2.43 1.756h6.78c2.342 0 4.242-1.912 4.242-4.268V4.268C30.327 1.912 28.427 0 26.086 0z"/></svg>